PathFileType	4	(X/Y/Z)	/Users/itak/Documents/Research/Walk-IL/dataset/trc/00546_00009.trc
DataRate	CameraRate	NumFrames	NumMarkers	Units	OrigDataRate	OrigDataStartFrame	OrigNumFrames
100.000000	100.000000	4	53	mm	100.000000	444	508
Frame#	Time	RPSI			LPSI			L3			STRN			T10			C7			CLAV			RBAK			LBAK			LSHO			LUPA			LAEL			LAOL			LWTS			LWPS			LFRA			LIFD			LHPS			LHTS			RSHO			RUPA			RAEL			RAOL			RWTS			RWPS			RFRA			RIFD			RHTS			RHPS			RBHD			LFHD			RFHD			LBHD			LHIP			RHIP			RASI			LASI			LKNE			LTHI			LANK			LTIP			LTOE			LMT1			LMT5			LHEE			RKNE			RTHI			RANK			RTIP			RTOE			RMT1			RMT5			RHEE			
		X1	Y1	Z1	X2	Y2	Z2	X3	Y3	Z3	X4	Y4	Z4	X5	Y5	Z5	X6	Y6	Z6	X7	Y7	Z7	X8	Y8	Z8	X9	Y9	Z9	X10	Y10	Z10	X11	Y11	Z11	X12	Y12	Z12	X13	Y13	Z13	X14	Y14	Z14	X15	Y15	Z15	X16	Y16	Z16	X17	Y17	Z17	X18	Y18	Z18	X19	Y19	Z19	X20	Y20	Z20	X21	Y21	Z21	X22	Y22	Z22	X23	Y23	Z23	X24	Y24	Z24	X25	Y25	Z25	X26	Y26	Z26	X27	Y27	Z27	X28	Y28	Z28	X29	Y29	Z29	X30	Y30	Z30	X31	Y31	Z31	X32	Y32	Z32	X33	Y33	Z33	X34	Y34	Z34	X35	Y35	Z35	X36	Y36	Z36	X37	Y37	Z37	X38	Y38	Z38	X39	Y39	Z39	X40	Y40	Z40	X41	Y41	Z41	X42	Y42	Z42	X43	Y43	Z43	X44	Y44	Z44	X45	Y45	Z45	X46	Y46	Z46	X47	Y47	Z47	X48	Y48	Z48	X49	Y49	Z49	X50	Y50	Z50	X51	Y51	Z51	X52	Y52	Z52	X53	Y53	Z53	

445	4.44	1464.043334960938	1021.155517578125	346.1745910644531	1470.352905273438	1022.061950683594	212.048095703125	1472.407348632812	1117.661499023438	270.63427734375	1710.859985351562	1301.213745117188	275.3230895996094	1465.405151367188	1242.28369140625	264.5440063476562	1521.926391601562	1515.537109375	277.058349609375	1694.555908203125	1413.111328125	276.7697143554688	1444.841918945312	1392.708618164062	360.3177490234375	1491.850708007812	1462.508056640625	181.2591552734375	1596.51416015625	1486.528198242188	110.1879425048828	1615.591186523438	1364.776123046875	28.61820030212402	1703.566650390625	1159.472900390625	7.717249870300293	1614.266235351562	1122.663330078125	36.16247177124023	1856.443603515625	955.5708618164062	74.332763671875	1838.075317382812	924.4395751953125	-5.018792152404785	1752.848388671875	1084.6806640625	5.956597805023193	1914.015747070312	795.8751220703125	70.21649932861328	1865.275146484375	870.532470703125	4.900688648223877	1901.75341796875	890.6327514648438	58.45712661743164	1574.293701171875	1479.246337890625	435.6105041503906	1551.372314453125	1416.3369140625	502.6488342285156	1537.235595703125	1128.500122070312	551.0397338867188	1483.705932617188	1109.7470703125	521.4330444335938	1688.4169921875	921.4916381835938	520.6714477539062	1641.15869140625	895.9310913085938	582.7083740234375	1549.321655273438	1073.602172851562	559.6264038085938	1720.198364257812	750.7092895507812	525.5963134765625	1724.860961914062	834.2939453125	536.9945068359375	1665.894897460938	823.6200561523438	581.1221923828125	1603.127563476562	1694.834106445312	348.873779296875	1763.061401367188	1710.525390625	217.3809814453125	1742.269775390625	1708.33203125	361.346923828125	1633.508544921875	1695.309692382812	186.936279296875	1601.60693359375	941.3426513671875	85.21997833251953	1586.393676757812	954.3425903320312	473.0737609863281	1673.068481445312	984.8030395507812	416.6480102539062	1676.855590820312	967.4464721679688	141.643798828125	1655.802368164062	499.6171264648438	163.2622222900391	1644.006103515625	664.1136474609375	122.6247329711914	1601.655883789062	30.59063720703125	188.1379852294922	1610.857421875	249.6378479003906	169.9835357666016	1807.38232421875	39.44447708129883	264.6310424804688	1732.202514648438	44.64754486083984	291.8265686035156	1724.728515625	34.17005157470703	182.5350036621094	1531.072509765625	38.13901519775391	236.8623352050781	1675.031494140625	515.5343627929688	448.9434509277344	1617.51953125	796.996337890625	461.6814575195312	1533.871459960938	50.39137649536133	442.9418640136719	1659.585815429688	369.5467224121094	443.3974304199219	1747.61474609375	76.26824188232422	421.515625	1690.851806640625	67.59589385986328	374.4560546875	1659.9306640625	56.35588455200195	473.6300964355469	1484.469116210938	45.02189254760742	382.9796752929688	
446	4.45	1466.438598632812	1021.110412597656	346.566162109375	1472.666625976562	1021.990478515625	212.3958435058594	1474.686157226562	1117.66015625	270.95361328125	1713.04052734375	1301.30126953125	275.3103637695312	1467.581665039062	1242.270751953125	264.8700256347656	1524.06396484375	1515.570678710938	277.2978820800781	1696.733764648438	1413.175415039062	276.7763061523438	1447.150390625	1392.711791992188	360.7494812011719	1493.864990234375	1462.534545898438	181.5205383300781	1598.457641601562	1486.609130859375	110.3501968383789	1617.723022460938	1364.9150390625	28.86337089538574	1706.479125976562	1159.948364257812	8.261048316955566	1617.3125	1122.702270507812	36.57924652099609	1860.622314453125	957.4915161132812	75.86219787597656	1842.788208007812	925.8997802734375	-3.39565896987915	1756.274536132812	1085.49755859375	6.856838226318359	1919.837646484375	798.4803466796875	72.53295135498047	1870.353149414062	872.109619140625	6.970879077911377	1906.664794921875	892.9747314453125	60.3838996887207	1576.73974609375	1479.29833984375	435.822998046875	1554.044921875	1416.328979492188	502.9031372070312	1540.545776367188	1128.435546875	551.302734375	1486.879638671875	1109.651000976562	521.9422607421875	1691.665283203125	921.521484375	520.2971801757812	1644.703857421875	895.9353637695312	582.5119018554688	1552.684814453125	1073.599487304688	559.7929077148438	1723.543823242188	750.6876831054688	525.14208984375	1728.267333984375	834.2884521484375	536.4733276367188	1669.538940429688	823.679443359375	580.8245849609375	1605.490356445312	1694.895263671875	349.0094604492188	1765.413940429688	1710.353393554688	217.5001831054688	1744.653076171875	1708.160522460938	361.4292907714844	1635.829711914062	1695.357299804688	187.0418090820312	1603.855102539062	941.333984375	85.51354217529297	1588.824340820312	954.3814086914062	473.3994750976562	1675.537963867188	984.9235229492188	416.8516540527344	1679.10595703125	967.5354614257812	141.9616088867188	1657.43701171875	499.5862121582031	163.5277099609375	1646.075073242188	664.0547485351562	123.1946716308594	1601.6171875	30.57458305358887	188.1817016601562	1611.566528320312	249.6496887207031	170.0965881347656	1807.392944335938	39.44604110717773	264.6071472167969	1732.224487304688	44.65838623046875	291.8886413574219	1724.71923828125	34.17608642578125	182.5713806152344	1531.067138671875	38.20239639282227	236.8369903564453	1677.427490234375	515.4180297851562	448.9242248535156	1619.898315429688	797.1229248046875	461.9736633300781	1542.140014648438	48.51949310302734	443.59033203125	1663.699829101562	369.364501953125	443.2755126953125	1755.357177734375	77.64128875732422	419.9821166992188	1698.213012695312	68.23564147949219	373.5163269042969	1668.400268554688	56.30824661254883	472.948974609375	1492.196899414062	42.51801681518555	384.2152099609375	
447	4.46	1468.836181640625	1021.012023925781	347.0137939453125	1474.9755859375	1021.893249511719	212.8066253662109	1476.950805664062	1117.61328125	271.3648681640625	1715.164672851562	1301.388305664062	275.334716796875	1469.717529296875	1242.203735351562	265.2540283203125	1526.09912109375	1515.565063476562	277.6050720214844	1698.828125	1413.236206054688	276.8270874023438	1449.38818359375	1392.647705078125	361.23095703125	1495.771240234375	1462.516479492188	181.8621215820312	1600.267333984375	1486.65380859375	110.581657409668	1619.667358398438	1365.01220703125	29.14912414550781	1709.096313476562	1160.337646484375	8.844208717346191	1620.039916992188	1122.707763671875	37.04120635986328	1864.413940429688	959.2833251953125	77.44788360595703	1847.08740234375	927.2219848632812	-1.710190415382385	1759.367919921875	1086.209838867188	7.798655033111572	1925.16162109375	800.90234375	74.95009613037109	1874.99169921875	873.5543823242188	9.105145454406738	1911.145385742188	895.1754150390625	62.37022018432617	1579.093017578125	1479.313232421875	436.0891418457031	1556.630249023438	1416.28125	503.2061767578125	1543.819213867188	1128.318481445312	551.6080932617188	1490.021118164062	1109.515258789062	522.5076904296875	1694.807861328125	921.4298095703125	519.9540405273438	1648.140502929688	895.8456420898438	582.3709716796875	1555.99365234375	1073.543090820312	560.005126953125	1726.649780273438	750.5389404296875	524.728515625	1731.513916015625	834.1480102539062	535.986328125	1673.043701171875	823.6802368164062	580.6465454101562	1607.742431640625	1694.937744140625	349.2027893066406	1767.653076171875	1710.175048828125	217.6687622070312	1746.941162109375	1707.976928710938	361.5707397460938	1638.043334960938	1695.408569335938	187.1922912597656	1606.099243164062	941.3306274414062	85.84012603759766	1591.182861328125	954.3536987304688	473.8189086914062	1678.014282226562	984.9903564453125	417.1036987304688	1681.367553710938	967.6250610351562	142.3134460449219	1659.023315429688	499.5360107421875	163.8335571289062	1648.10986328125	663.9904174804688	123.8288040161133	1601.579833984375	30.56187629699707	188.2257537841797	1612.2626953125	249.6702270507812	170.2073669433594	1807.401733398438	39.45066070556641	264.5859680175781	1732.242431640625	44.65988922119141	291.9468383789062	1724.708862304688	34.1826057434082	182.6112060546875	1531.060424804688	38.25925827026367	236.8205261230469	1679.697021484375	515.22998046875	448.8572387695312	1622.285034179688	797.1946411132812	462.3157958984375	1549.501708984375	46.86245727539062	444.0819091796875	1667.457397460938	369.1380310058594	443.1075744628906	1762.269897460938	78.76571655273438	418.6239318847656	1704.796997070312	68.7562255859375	372.6798706054688	1675.934326171875	56.23798751831055	472.3141174316406	1499.125610351562	40.33897018432617	385.1959228515625	
448	4.47	1471.245483398438	1020.867492675781	347.5115966796875	1477.286254882812	1021.773254394531	213.2836151123047	1479.212036132812	1117.517456054688	271.8618774414062	1717.239501953125	1301.472534179688	275.4025268554688	1471.82177734375	1242.08056640625	265.7023620605469	1528.037963867188	1515.516723632812	277.9814147949219	1700.844970703125	1413.293334960938	276.9283142089844	1451.561645507812	1392.514892578125	361.7653198242188	1497.576293945312	1462.450073242188	182.2840728759766	1601.951171875	1486.658569335938	110.8831024169922	1621.432250976562	1365.062133789062	29.47770500183105	1711.425048828125	1160.633422851562	9.464864730834961	1622.452270507812	1122.673095703125	37.54352569580078	1867.826782226562	960.9324951171875	79.08963775634766	1850.971069335938	928.3860473632812	0.04212756082415581	1762.134399414062	1086.810302734375	8.77497386932373	1929.975219726562	803.1171264648438	77.44831848144531	1879.198852539062	874.8717041015625	11.27957057952881	1915.188110351562	897.20947265625	64.41012573242188	1581.355346679688	1479.286865234375	436.4071655273438	1559.128662109375	1416.1943359375	503.5575256347656	1547.0380859375	1128.15283203125	551.9515380859375	1493.116577148438	1109.338012695312	523.1173706054688	1697.835205078125	921.2272338867188	519.661865234375	1651.460205078125	895.6654052734375	582.2880859375	1559.233276367188	1073.42822265625	560.2642822265625	1729.543823242188	750.2808227539062	524.3590698242188	1734.604248046875	833.8937377929688	535.5480346679688	1676.385009765625	823.6165161132812	580.5739135742188	1609.881713867188	1694.961547851562	349.4501953125	1769.778564453125	1709.999267578125	217.8858184814453	1749.11962890625	1707.789428710938	361.762451171875	1640.14892578125	1695.459838867188	187.3904266357422	1608.34326171875	941.3345336914062	86.19692993164062	1593.46728515625	954.2669677734375	474.3292541503906	1680.502807617188	984.9949340820312	417.4054260253906	1683.65185546875	967.7046508789062	142.6786041259766	1660.526245117188	499.4708557128906	164.1525421142578	1650.085327148438	663.9216918945312	124.4928131103516	1601.545776367188	30.55461692810059	188.2657165527344	1612.922241210938	249.6993255615234	170.3067626953125	1807.407470703125	39.45664978027344	264.56640625	1732.255859375	44.6540412902832	291.9987182617188	1724.697265625	34.18798446655273	182.650390625	1531.051635742188	38.30545043945312	236.8158416748047	1681.817626953125	514.9703369140625	448.7540893554688	1624.68408203125	797.20361328125	462.7083129882812	1555.9697265625	45.3975715637207	444.406982421875	1670.835083007812	368.8585205078125	442.9140625	1768.40234375	79.55351257324219	417.5076293945312	1710.660522460938	69.08132171630859	371.9803771972656	1682.529907226562	56.09085083007812	471.7474060058594	1505.27685546875	38.47669219970703	385.8690490722656	
